<svg xmlns="http://www.w3.org/2000/svg" xmlns:xlink="http://www.w3.org/1999/xlink" version="1.1" id="Layer_1" x="0px" y="0px" viewBox="0 0 80 80" style="enable-background:new 0 0 80 80;" xml:space="preserve">
<style type="text/css">
	.st0{fill:;}
</style>
<path class="st0" d="M72.5,73.9H60.3V56.8c0-18.1-27.5-35.7-45.7-16C19,34,28.9,26.6,40.8,26.6c18.7,0,31.1,15.5,31.7,30.4V73.9z   M72.5,45.2c-3.2-7.3-6.8-11-12.2-15.1V10.3h12.2V45.2z M21.6,30.2c-5.3,4.1-9,7.8-12.2,15.1V10.3h12.2V30.2z M9.4,57  c1.6-22.6,27.3-28.1,39.9-15.9C36.8,35,21.6,44.3,21.6,58.4v15.7H9.4V57z M80,0H0v80h80V1z"/>
</svg>