<svg version="1.1" id="Layer_1" xmlns="http://www.w3.org/2000/svg" xmlns:xlink="http://www.w3.org/1999/xlink" x="0px" y="0px" viewBox="0 0 47 37.8" style="enable-background:new 0 0 47 37.8;" xml:space="preserve">
 <style type="text/css">
  .st0{fill-rule:evenodd;clip-rule:evenodd;fill:#E70D30;}
	.st1{fill-rule:evenodd;clip-rule:evenodd;fill:#010101;}
	.st2{fill-rule:evenodd;clip-rule:evenodd;fill:#FFFFFF;}
 </style>
 <g id="Page-1">
  <g id="Tablet_x28_768x1013_x29_" transform="translate(-70.000000, -31.000000)">
   <path id="Path_7_" class="st0" d="M74.7,31h37.4c2.7,0,4.9,2,4.9,4.7v28.4c0,2.7-2,4.7-4.7,4.7H74.5c-2.5,0-4.5-2-4.5-4.7V35.7
			C70,33.2,72,31,74.7,31">
   </path>
   <path id="Shape_4_" class="st1" d="M99.6,66.1l2.9-3h5.5V44.4h4.3V40l-3.5-3.1l-0.1,4.2H94.8c0,0,2.7,3.5,2.2,9.3
			c-0.5,5.1-5.5,9.9-9.8,10.3c-4.4,0.6-7.9-2.3-7.9-2.3c1,0.7,7.5,9.4,16.2,3.7L99.6,66.1 M84.9,56.6c-2.5-0.8-4.3-4.1-4.3-8.1
			c0-3.9,2.3-8.1,5.4-8.1c3,0,4.4,3,4.4,3s-4,0.1-5.9,4.6C82.6,52.4,84.9,56.6,84.9,56.6">
   </path>
   <path id="Shape_5_" class="st2" d="M86.2,53.2l2.6,2.5c-0.6,0.5-1.4,1.2-3.1,1.1c-3.3-0.3-5.3-4.5-5.2-8.4c0-3.8,2.2-8,5.4-8
			c3.3,0,5.6,3.8,5.7,7.9c0,1.5-0.1,2.4-0.5,3.8l-1.9-1.9L86.2,53.2 M99.2,41.2v18.7h5.3V41.2h4.3V37H94.5v3.6
			c-2-2.5-4.9-4.1-8.5-4.1c-6.5,0-10.8,5.6-10.9,12c-0.2,6.7,4.4,12.4,10.9,12.4c2.2,0,4.4-0.8,6.1-2l4.2,4.1l2.9-3L95,55.7
			c1.7-2.2,2.2-4.1,2.2-7.4c0-3.9-2.2-7.2-2.2-7.2H99.2z">
   </path>
  </g>
 </g>
</svg>