<svg xmlns="http://www.w3.org/2000/svg" width="232" height="232" viewBox="0 0 232 232"><defs><style>.a,.c{fill:#173277;}.b{fill:#ff200c;}.b,.c{fill-rule:evenodd;}</style></defs><g><path class="b" d="M1746.354,73.175c-2.27-2.529-4.572-4.969-6.885-7.371l22.471-2.487-33.182-8.029c-50.149-46.6-107.125-63.519-135.44-38.89-31.695,27.565-17.64,101.184,37.32,158.113.443.463.9.9,1.348,1.358l-21.889,2.425,32.562,7.878c51.558,47.024,109.938,61.845,142.287,43.592C1831.13,203.7,1799.966,132.917,1746.354,73.175Zm31.293,140.92c-26.132,18.759-88.773,10.566-131.5-29.936l-4.809-33.617-5.117,23.174c-.381-.444-.774-.868-1.151-1.319-46.648-55.989-58.943-112.19-32.482-139.988,24.885-26.141,77.6-13.31,123.428,25.986l4.673,32.671,5.224-23.665c1.8,1.74,3.6,3.512,5.364,5.333C1790.056,122.984,1807.748,192.484,1777.647,214.1Z" transform="translate(-1576.643 -5.117)"/><path class="c" d="M1674.587,144.566,1667,129.572l-14.256,8.388,1.489-16.835-16.4-.881,10.091-13.335L1634.6,97.042l15.489-5.6-6.035-15.724,15.975,3.911,3.177-16.583,11.382,12.183,11.382-12.183,3.176,16.583,15.973-3.911-6.034,15.724,15.493,5.6-13.33,9.868,10.088,13.335-16.391.881,1.486,16.835-14.255-8.388Z" transform="translate(-1559.215 12.303)"/><g transform="translate(0.116 0.168)"><g transform="translate(147.752 157.859)"><path class="c" d="M1715.044,137.407l-24.72-5.522,36.321-5.264Z" transform="translate(-1690.324 -126.606)"/><path class="c" d="M1709.324,137.4l2.828,25.888,8.767-36.677Z" transform="translate(-1684.61 -126.609)"/></g><g transform="translate(55.04 39.215)"><g transform="translate(0 0)"><path class="c" d="M1630.649,55.287l24.721,5.524-36.323,5.263Z" transform="translate(-1619.047 -29.413)"/><path class="c" d="M1630.656,61.279,1627.824,35.4l-8.769,36.674Z" transform="translate(-1619.045 -35.395)"/></g></g><path class="c" d="M1644.292,66.58c-59.449,54.011-83.722,121.945-56.357,153.794s100.436,17.726,156.943-37.5c55.763-54.5,74.388-120.009,54.844-155.072C1773.85-18.614,1703.594,12.705,1644.292,66.58Zm139.879-31.449c20.3,28.637,8.829,100.916-41.39,143.278-55.577,46.88-111.361,59.237-138.953,32.643-28.889-27.842-9.855-90.358,40.027-139.375S1762.719,4.884,1784.172,35.131Z" transform="translate(-1576.732 -5.246)"/></g><path class="b" d="M1608.293,133.865c-23.459-41.936-26.044-80.087-5.7-101.455,12.9-13.546,33.269-16.621,56.287-10.981a114.64,114.64,0,0,1,9.555-6.7c-30.3-12.924-57.965-13.248-75.116,1.67C1566.2,39.985,1572.6,97.286,1609.437,149A149.4,149.4,0,0,1,1608.293,133.865Z" transform="translate(-1576.64 -5.117)"/></g></svg>